<svg xmlns="http://www.w3.org/2000/svg" width="512" height="512" viewBox="0 0 512 512" version="1.1">
	<path d="M 217.500 53.900 C 212.824 56.070, 207.571 61.312, 206.061 65.315 C 205.478 66.863, 205 70.097, 205 72.500 C 205 78.207, 206.403 81.739, 210.311 85.872 C 216.922 92.863, 217.522 92.956, 256 92.956 C 294.478 92.956, 295.078 92.863, 301.689 85.872 C 305.597 81.739, 307 78.207, 307 72.500 C 307 66.793, 305.597 63.261, 301.689 59.128 C 295.078 52.137, 294.478 52.044, 256 52.044 C 224.496 52.044, 221.153 52.205, 217.500 53.900 M 236.500 118.632 C 197.938 124.352, 165.213 140.085, 139.129 165.445 C 118.121 185.869, 104.533 206.990, 95.623 233.071 C 89.373 251.365, 87.888 260.193, 87.304 282.500 C 86.848 299.958, 87.055 304.111, 88.933 315.173 C 101.431 388.777, 161.069 445.876, 235.458 455.459 C 250.575 457.407, 261.425 457.407, 276.542 455.459 C 316.676 450.289, 353.063 431.490, 380.429 401.786 C 402.512 377.818, 417.652 347.061, 423.067 315.173 C 424.945 304.111, 425.152 299.958, 424.696 282.500 C 424.112 260.193, 422.627 251.365, 416.377 233.071 C 407.467 206.990, 393.879 185.869, 372.871 165.445 C 349.618 142.837, 321.510 128.048, 288.019 120.799 C 280.626 119.199, 274.145 118.677, 259 118.463 C 248.275 118.312, 238.150 118.388, 236.500 118.632 M 400.241 149.995 C 396.333 152.377, 393.009 157.501, 393.004 161.150 C 393.002 162.607, 394.473 165.982, 396.273 168.650 C 402.570 177.983, 415.245 193.179, 418.359 195.129 C 427.692 200.973, 441.071 188.475, 435.874 178.765 C 433.104 173.589, 413.935 150.291, 411.553 149.206 C 407.727 147.463, 403.963 147.725, 400.241 149.995 M 251.691 182.789 C 250.468 184.140, 248.471 196.745, 243.536 234.265 C 239.941 261.593, 237.010 285.425, 237.022 287.226 C 237.100 298.786, 249.659 308.054, 261.079 304.979 C 266.690 303.468, 273.364 296.949, 274.883 291.497 C 275.827 288.105, 274.993 279.776, 269.378 236.500 C 265.322 205.238, 262.218 184.629, 261.358 183.250 C 259.598 180.430, 254.064 180.166, 251.691 182.789" stroke="none" fill="black" fill-rule="evenodd"/>
</svg>